<svg width="60" height="60" viewBox="0 0 60 60" fill="none" xmlns="http://www.w3.org/2000/svg">
<path d="M35.9236 35.75L38.2296 38.627C38.2296 38.627 38.6816 39.315 38.6246 39.544C38.6046 39.622 38.5476 39.688 38.4986 39.744C38.4026 39.852 38.3346 39.928 38.6296 40.003C38.7366 40.03 38.8516 40.045 38.9556 40.058C39.2836 40.099 39.5066 40.127 39.0766 40.519C38.8196 40.754 38.5736 40.786 38.3826 40.812C38.1536 40.843 38.0026 40.863 38.0026 41.206C38.0026 41.518 38.0726 41.676 38.1276 41.804C38.1856 41.936 38.2296 42.036 38.1726 42.238C38.1246 42.408 38.0866 42.476 38.0506 42.54C38.0016 42.628 37.9556 42.71 37.8896 43.041C37.7766 43.614 37.7766 43.672 37.7766 44.072V45.334H31.8406C31.8406 45.334 31.2186 44.416 31.4446 44.13C31.5336 44.018 31.5716 43.984 31.5756 43.948C31.5806 43.891 31.5026 43.826 31.3956 43.442C31.3506 43.286 31.3266 43.125 31.3246 42.963C31.3196 42.774 31.3186 42.708 30.9926 42.525C30.7796 42.405 30.5756 42.375 30.3866 42.348C30.1246 42.31 29.8896 42.276 29.6926 42.009C29.3526 41.55 29.0706 41.264 29.0706 41.264L29.0366 41.124C28.9236 40.65 28.7556 39.946 28.4486 39.946C28.3186 39.946 28.2636 39.937 28.2166 39.93C28.1396 39.918 28.0846 39.91 27.7706 39.946C27.6026 39.964 27.4536 40.039 27.3176 40.108C27.0376 40.25 26.8106 40.364 26.5826 39.92C26.4596 39.679 26.3806 39.457 26.3136 39.27C26.1986 38.943 26.1196 38.721 25.9046 38.684C25.7686 38.662 25.6606 38.684 25.5426 38.709C25.3076 38.771 25.0606 38.762 24.8296 38.684C24.5756 38.607 24.3906 38.769 24.2476 38.894C24.0726 39.047 23.9626 39.143 23.8686 38.675C23.7636 38.144 23.8116 37.788 23.8486 37.512C23.8716 37.346 23.8906 37.208 23.8686 37.08C23.8486 36.955 23.8706 36.808 23.8936 36.652M27.3176 25.214L28.3916 16.272L23.6996 15.642C23.6996 15.642 21.0426 15.24 20.7036 15.126L20.5266 15.065C20.1066 14.92 19.3716 14.667 19.1766 14.667C19.0466 14.667 19.0666 14.8 19.1076 15.068C19.1516 15.334 19.1746 15.602 19.1766 15.871C19.1766 16.367 19.1556 16.491 19.1256 16.662C19.1076 16.767 19.0856 16.891 19.0636 17.132C19.0076 17.762 18.8946 18.106 18.6116 18.45C18.5176 18.565 18.4546 18.628 18.4046 18.68C18.3046 18.782 18.2536 18.832 18.1036 19.138C17.9126 19.524 18.0816 19.706 18.5056 20.164C18.5856 20.25 18.6756 20.347 18.7736 20.457C19.1446 20.872 19.0906 20.953 18.9896 21.104C18.9236 21.202 18.8376 21.33 18.8376 21.603C18.8376 21.855 18.8296 22.007 18.8226 22.144C18.8106 22.38 18.8016 22.57 18.8376 23.151C18.8666 23.628 18.8196 23.686 18.7916 23.721C18.7656 23.753 18.7556 23.765 18.8376 24.068C19.0076 24.698 19.4036 25.501 19.4036 25.501" stroke="white" stroke-width="0.5" stroke-miterlimit="10"/>
<path d="M19.6495 34.0561C17.7495 34.0561 16.5665 32.7401 16.5665 30.7341C16.5665 28.7461 17.7865 27.4111 19.7145 27.4111C21.2045 27.4111 22.2755 28.3071 22.4905 29.6881H21.3815C21.1675 28.8671 20.5535 28.3541 19.6685 28.3541C18.4295 28.3541 17.6665 29.3341 17.6665 30.7341C17.6665 32.1241 18.4115 33.1141 19.6405 33.1141C20.5445 33.1141 21.1685 32.6101 21.3735 31.7791H22.4815C22.2765 33.1601 21.1685 34.0561 19.6505 34.0561H19.6495ZM26.1155 34.0561C24.2165 34.0561 23.0335 32.7401 23.0335 30.7341C23.0335 28.7461 24.2535 27.4111 26.1815 27.4111C27.6715 27.4111 28.7435 28.3071 28.9575 29.6881H27.8485C27.6345 28.8671 27.0195 28.3541 26.1355 28.3541C24.8965 28.3541 24.1325 29.3341 24.1325 30.7341C24.1325 32.1241 24.8775 33.1141 26.1075 33.1141C27.0105 33.1141 27.6345 32.6101 27.8395 31.7791H28.9475C28.7435 33.1601 27.6345 34.0561 26.1165 34.0561H26.1155ZM29.8345 34.0001V27.4671H32.4045C33.7645 27.4671 34.6585 28.2791 34.6585 29.5481C34.6585 30.8081 33.7645 31.6301 32.4045 31.6301H30.9055V34.0001H29.8345ZM32.3205 28.4001H30.9055V30.6961H32.3115C33.0755 30.6961 33.5685 30.2481 33.5685 29.5481C33.5685 28.8391 33.0855 28.4001 32.3205 28.4001ZM35.3415 34.0001H34.2335L36.6735 27.4671H37.9495L40.3805 34.0001H39.2345L38.6195 32.3861H35.9465L35.3415 34.0001ZM37.2795 28.6241L36.2455 31.4711H38.3225L37.2795 28.6241Z" fill="white"/>
<path d="M6.38245 30C6.38245 16.929 16.9564 6.33301 29.9994 6.33301C43.0434 6.33301 53.6174 16.929 53.6174 30C53.6174 43.071 43.0434 53.667 29.9994 53.667C16.9564 53.667 6.38245 43.071 6.38245 30Z" stroke="white" stroke-width="0.5" stroke-miterlimit="10"/>
</svg>
