<svg width="25" height="25" viewBox="0 0 25 25" fill="none" xmlns="http://www.w3.org/2000/svg">
<g clip-path="url(#clip0_1_1187)">
<g clip-path="url(#clip1_1_1187)">
<path d="M17.9121 18.0989C18.8201 19.6309 19.7171 21.1449 20.6141 22.6579C16.6431 25.6159 10.4641 25.9729 5.89011 22.5669C0.62611 18.6449 -0.23889 11.9529 2.57911 7.13494C5.82011 1.59394 11.8861 0.36894 15.7911 1.26694C15.6851 1.48994 13.3461 6.20994 13.3461 6.20994C13.3461 6.20994 13.1611 6.22194 13.0571 6.22394C11.9031 6.27094 11.0431 6.53294 10.1211 6.99594C8.06911 8.03794 6.68011 10.0019 6.41511 12.2389C6.27911 13.3569 6.43811 14.4899 6.87711 15.5309C7.24811 16.4109 7.77311 17.1929 8.47711 17.8529C9.55711 18.8659 10.8411 19.4939 12.3311 19.7009C13.7411 19.8979 15.0981 19.7029 16.3691 19.0819C16.8451 18.8489 17.2511 18.5919 17.7251 18.2399C17.7851 18.2019 17.8391 18.1539 17.9121 18.0989Z" fill="white"/>
<path d="M17.921 4.6629C17.69 4.4419 17.477 4.2389 17.264 4.0339C17.137 3.9119 17.015 3.7849 16.885 3.6659C16.839 3.6229 16.784 3.5639 16.784 3.5639C16.784 3.5639 16.828 3.4729 16.847 3.4359C17.096 2.9499 17.485 2.5949 17.948 2.3129C18.459 1.9989 19.054 1.8389 19.659 1.8529C20.433 1.8679 21.152 2.0549 21.759 2.5599C22.207 2.9329 22.437 3.4049 22.477 3.9689C22.545 4.9209 22.14 5.6499 21.336 6.1589C20.864 6.4579 20.354 6.6899 19.843 6.9639C19.562 7.1149 19.321 7.2479 19.045 7.5209C18.803 7.7959 18.791 8.0549 18.791 8.0549L22.451 8.0509V9.6359H16.802V9.4829C16.78 8.7039 16.874 7.9699 17.24 7.2629C17.578 6.6139 18.102 6.1389 18.732 5.7729C19.217 5.4909 19.728 5.2509 20.214 4.9699C20.514 4.7969 20.726 4.5429 20.725 4.1759C20.725 3.8599 20.488 3.5789 20.151 3.4919C19.355 3.2829 18.546 3.6159 18.125 4.3239C18.063 4.4279 18 4.5299 17.921 4.6629ZM25 16.4129L21.916 11.2329H15.812L12.708 16.4669H18.856L21.89 21.6229L25 16.4129Z" fill="white"/>
</g>
</g>
<defs>
<clipPath id="clip0_1_1187">
<rect width="25" height="25" fill="white"/>
</clipPath>
<clipPath id="clip1_1_1187">
<rect width="25" height="25" fill="white"/>
</clipPath>
</defs>
</svg>
