<svg width="92" height="21" viewBox="0 0 92 21" fill="none" xmlns="http://www.w3.org/2000/svg">
<g clip-path="url(#clip0_1_1177)">
<g clip-path="url(#clip1_1_1177)">
<path d="M91.5255 6.79084L91.2596 9.96613H89.9631C87.8888 9.96613 86.8109 11.6263 86.8109 13.217V20.3916H83.136V6.79084H86.6165L86.6961 8.4893C87.4264 7.32375 88.7038 6.79084 90.2814 6.79084H91.5255ZM66.0496 20.3916H62.3706V13.2029C62.3706 11.6958 62.2407 9.80092 60.1201 9.80092C58.0781 9.80092 57.2652 11.2727 57.2652 12.9873V20.3926H53.5882V6.79084H56.9972L57.0748 8.52959C57.8061 7.36606 59.1671 6.45941 61.1738 6.45941C64.88 6.45941 66.0486 9.10179 66.0486 11.852V20.3926L66.0496 20.3916ZM51.9844 17.2133L51.7275 20.309C50.8461 20.5458 50.0633 20.6294 49.1144 20.6294C45.6499 20.6294 44.6446 19.0427 44.6446 15.8523V2.95368H48.3215V6.79084H51.9804L51.7275 9.96714H48.3215V15.5773C48.3215 16.8577 48.6731 17.5488 49.9888 17.5488C50.56 17.5488 51.1946 17.4793 51.9844 17.2133ZM43.4387 6.79084L43.1536 9.96714H42.1533C40.0861 9.96714 39.0555 11.6253 39.0555 13.218V20.3926H35.3776V6.79084H38.8601L38.9326 8.4893C39.667 7.32375 40.9444 6.79084 42.523 6.79084H43.4387ZM18.7818 18.8866C16.2865 20.2204 13.7952 20.988 10.5031 20.8933C4.40129 20.7029 0 16.9202 0 10.5262C0 4.16356 4.44461 0.0977307 10.5061 0.00202858C13.5786 -0.0453188 16.3278 0.733394 18.4766 2.6283L15.8886 5.24449C14.5588 4.11219 12.6025 3.45033 10.2633 3.5551C6.44831 3.7324 4.14944 6.50172 4.09907 10.3097C4.04971 14.4359 6.58229 17.2788 10.5403 17.3825C12.403 17.4289 13.7378 17.178 14.8923 16.6602V12.4443H10.7781L11.0551 8.98594H18.7798V18.8846L18.7818 18.8866ZM81.4949 14.8852H71.413C71.6991 16.623 73.0671 17.6686 74.7706 17.715C76.4257 17.7603 77.3525 17.2617 78.5634 16.0347L80.963 17.8631C79.2585 19.9615 77.2115 20.7251 74.8804 20.7251C70.7803 20.7251 67.7078 17.8621 67.7078 13.5917C67.7078 9.32644 70.7642 6.45739 74.7273 6.45739C79.0933 6.45739 81.4939 9.10079 81.4939 13.7932L81.4949 14.8852ZM77.8109 12.0404C77.6971 10.3217 76.4086 9.23578 74.6346 9.30529C72.8485 9.37278 71.6588 10.5353 71.4119 12.0414H77.8109V12.0404ZM33.0636 11.4853V20.3936H29.8208L29.7402 19.0518C28.7449 20.2818 27.1301 20.7251 25.4669 20.7251C22.9625 20.7251 20.5971 19.492 20.5478 16.6189C20.4732 12.1038 25.6351 11.7835 28.8759 11.7835H29.5246V11.6042C29.5246 10.1112 28.5344 9.30428 26.6737 9.30428C25.3228 9.31334 24.0253 9.83215 23.039 10.7549L20.9185 8.60213C22.8446 7.04168 24.8493 6.45941 26.984 6.45941C31.2039 6.45941 33.0636 8.40569 33.0636 11.4853ZM29.5246 14.4601H29.0129C27.2721 14.4651 24.2126 14.5508 24.2247 16.3691C24.2409 18.9319 29.5236 18.1169 29.5236 15.0273V14.4601H29.5246ZM88.6575 18.81C88.6575 17.9457 89.3123 17.2929 90.1504 17.2929C90.9785 17.2929 91.6343 17.9457 91.6343 18.81C91.6343 19.6915 90.9785 20.3423 90.1504 20.3423C89.3123 20.3423 88.6575 19.6915 88.6575 18.81ZM90.1504 20.6455C91.1488 20.6455 92 19.8708 92 18.81C92 17.7603 91.1488 16.9866 90.1504 16.9866C89.143 16.9866 88.2898 17.7603 88.2898 18.81C88.2898 19.8708 89.143 20.6455 90.1504 20.6455ZM89.7626 18.9571H90.1313L90.6874 19.8708H91.047L90.4476 18.941C90.7569 18.9047 90.9936 18.7385 90.9936 18.3597C90.9936 17.9437 90.7468 17.7603 90.2471 17.7603H89.4443V19.8708H89.7626V18.9571ZM89.7626 18.6841V18.0323H90.1978C90.4214 18.0323 90.6592 18.0807 90.6592 18.3416C90.6592 18.666 90.4164 18.6841 90.1464 18.6841H89.7626Z" fill="white"/>
</g>
</g>
<defs>
<clipPath id="clip0_1_1177">
<rect width="92" height="21" fill="white"/>
</clipPath>
<clipPath id="clip1_1_1177">
<rect width="92" height="20.9014" fill="white"/>
</clipPath>
</defs>
</svg>
