<svg width="60" height="60" viewBox="0 0 60 60" fill="none" xmlns="http://www.w3.org/2000/svg">
<path d="M20.9755 33.3891C19.1495 33.3891 17.8925 32.0551 17.8925 30.0671C17.8925 28.0791 19.1215 26.7441 21.0595 26.7441C22.5685 26.7441 23.6675 27.6401 23.8625 29.0211H22.7555C22.5595 28.1911 21.9355 27.6871 21.0315 27.6871C19.7935 27.6871 18.9925 28.6671 18.9925 30.0671C18.9925 31.4671 19.7745 32.4471 21.0225 32.4471C22.0285 32.4471 22.8385 31.8771 22.8945 30.8231V30.6641H21.0875V29.7591H23.9195V33.3331H23.0905L22.9975 32.4561C22.6805 32.9231 22.0095 33.3891 20.9765 33.3891H20.9755ZM27.3285 33.3331H25.1115V26.8001H27.3285C29.3675 26.8001 30.6535 28.1161 30.6535 30.0571C30.6535 31.9991 29.3675 33.3331 27.3285 33.3331ZM26.1825 27.7331V32.4001H27.3285C28.7625 32.4001 29.5545 31.4571 29.5545 30.0571C29.5545 28.6571 28.7625 27.7331 27.3285 27.7331H26.1825ZM31.5965 33.3331V26.8001H34.1675C35.5265 26.8001 36.4215 27.6121 36.4215 28.8811C36.4215 30.1411 35.5265 30.9631 34.1675 30.9631H32.6675V33.3331H31.5965ZM34.0835 27.7331H32.6675V30.0291H34.0745C34.8375 30.0291 35.3315 29.5811 35.3315 28.8811C35.3315 28.1721 34.8475 27.7331 34.0835 27.7331ZM37.2445 33.3331V26.8001H39.8155C41.1755 26.8001 42.0875 27.6121 42.0875 28.8811C42.0875 29.7591 41.5855 30.4591 40.8215 30.7291L42.1995 33.3331H41.0075L39.7505 30.9631H38.3155V33.3331H37.2445ZM39.7315 27.7331H38.3155V30.0291H39.7315C40.4955 30.0291 40.9885 29.5811 40.9885 28.8811C40.9885 28.1811 40.4955 27.7331 39.7315 27.7331Z" fill="white"/>
<path d="M27.9056 52.88L29.4126 51.802L28.8576 50.033L30.3476 51.133L31.8546 50.054L31.2686 51.814L32.7546 52.919L30.9026 52.906L30.3176 54.667L29.7576 52.893L27.9056 52.88ZM16.9816 48.643L18.8246 48.466L19.2256 46.654L19.9656 48.354L21.8086 48.177L20.4226 49.407L21.1626 51.111L19.5656 50.166L18.1786 51.401L18.5796 49.588L16.9816 48.643ZM9.63256 39.505L11.3196 40.273L12.5686 38.901L12.3626 40.747L14.0456 41.515L12.2326 41.886L12.0216 43.733L11.1086 42.115L9.29656 42.486L10.5446 41.118L9.63256 39.505ZM7.83256 27.902L8.90856 29.412L10.6736 28.855L9.57156 30.349L10.6476 31.859L8.89156 31.272L7.78956 32.761L7.80656 30.905L6.04956 30.319L7.81556 29.757L7.83256 27.902ZM12.0566 16.955L12.2376 18.802L14.0456 19.203L12.3446 19.945L12.5256 21.792L11.2986 20.403L9.59756 21.145L10.5366 19.545L9.30856 18.155L11.1176 18.556L12.0566 16.955ZM21.1796 9.59L20.4136 11.281L21.7786 12.533L19.9396 12.326L19.1736 14.013L18.8036 12.196L16.9606 11.985L18.5756 11.07L18.2046 9.253L19.5696 10.505L21.1796 9.59ZM32.7536 7.787L31.2466 8.865L31.8076 10.634L30.3166 9.529L28.8096 10.608L29.3956 8.848L27.9056 7.743L29.7576 7.761L30.3476 6L30.9026 7.769L32.7536 7.787ZM43.6826 12.019L41.8396 12.201L41.4386 14.013L40.6986 12.308L38.8556 12.489L40.2426 11.26L39.5016 9.555L41.0986 10.496L42.4856 9.266L42.0846 11.079L43.6826 12.019ZM51.0286 21.162L49.3446 20.394L48.0916 21.762L48.3026 19.919L46.6146 19.151L48.4306 18.781L48.6386 16.934L49.5516 18.552L51.3686 18.181L50.1156 19.549L51.0286 21.162ZM52.8316 32.76L51.7566 31.25L49.9906 31.811L51.0886 30.318L50.0116 28.808L51.7686 29.395L52.8716 27.901L52.8576 29.757L54.6146 30.349L52.8456 30.905L52.8316 32.76ZM48.6036 43.711L48.4266 41.865L46.6186 41.463L48.3156 40.721L48.1386 38.875L49.3656 40.264L51.0666 39.522L50.1236 41.122L51.3556 42.512L49.5466 42.111L48.6036 43.711ZM39.4846 51.073L40.2506 49.385L38.8816 48.13L40.7246 48.341L41.4906 46.65L41.8606 48.47L43.7036 48.678L42.0886 49.593L42.4596 51.413L41.0946 50.158L39.4846 51.073Z" fill="white"/>
</svg>
