<svg width="24" height="20" viewBox="0 0 24 20" fill="none" xmlns="http://www.w3.org/2000/svg">
<path d="M15.249 5.35503L16.016 5.36903L18.101 3.28403L18.202 2.40103C16.545 0.928029 14.366 0.0300293 11.979 0.0300293C7.65801 0.0300293 4.01301 2.96903 2.93201 6.95303C3.16001 6.79503 3.64501 6.91203 3.64501 6.91203L7.81301 6.22803C7.81301 6.22803 8.02801 5.87403 8.13501 5.89503C9.08801 4.85203 10.458 4.19703 11.979 4.19703C13.217 4.19703 14.354 4.63103 15.249 5.35503Z" fill="#EA4335" stroke="black" stroke-width="0.06"/>
<path d="M21.028 6.95802C20.544 5.17102 19.545 3.59502 18.2 2.40002L15.246 5.35302C16.429 6.30902 17.187 7.77002 17.187 9.40502V9.92602C18.623 9.92602 19.792 11.094 19.792 12.53C19.792 13.966 18.623 15.134 17.187 15.134H11.979L11.458 15.658V18.783L11.979 19.301H17.187C20.921 19.301 23.958 16.263 23.958 12.53C23.958 10.222 22.797 8.18102 21.028 6.95802Z" fill="#4285F4"/>
<path d="M6.76996 19.301H11.975V15.134H6.77096C6.38796 15.134 6.02596 15.049 5.69796 14.9L4.94796 15.13L2.86096 17.215L2.67896 17.919C3.81596 18.785 5.23396 19.301 6.76996 19.301Z" fill="#34A853"/>
<path d="M6.771 5.75903C3.037 5.75903 0 8.79703 0 12.53C0 14.728 1.054 16.684 2.682 17.922L5.702 14.902C4.798 14.493 4.167 13.585 4.167 12.53C4.167 11.094 5.335 9.92603 6.771 9.92603C7.826 9.92603 8.734 10.557 9.143 11.461L12.163 8.44103C10.925 6.81303 8.969 5.75903 6.771 5.75903Z" fill="#FBBC05"/>
</svg>
