<svg width="72" height="22" viewBox="0 0 72 22" fill="none" xmlns="http://www.w3.org/2000/svg">
<g clip-path="url(#clip0_1_1182)">
<g clip-path="url(#clip1_1_1182)">
<path d="M28.9756 0.279708H25.5963V21.5577H28.9756V0.279708ZM47.2519 3.31042C46.2539 2.34247 45.0692 1.58729 43.7696 1.09283C42.3242 0.548416 40.7918 0.272715 39.2465 0.279708H31.6368V21.5756H39.2485C40.7938 21.5796 42.3262 21.2999 43.7716 20.7505C45.0702 20.2701 46.2549 19.5269 47.2528 18.5659C48.2268 17.6119 48.989 16.4642 49.4924 15.1975C50.0298 13.837 50.2976 12.3846 50.2836 10.9222C50.2946 9.46875 50.0258 8.02532 49.4914 6.67278C48.984 5.41015 48.2218 4.26539 47.2519 3.31042ZM46.9042 10.9561C46.9042 15.4982 43.7516 18.6708 39.2585 18.6708H34.9502V3.18956H39.2685C43.8236 3.18956 46.9142 6.30218 46.9142 10.9222L46.9042 10.9541V10.9561ZM69.6516 15.1756V15.2025C68.0643 17.3532 65.549 18.6208 62.8749 18.6168C60.8451 18.6788 58.8792 17.8976 57.4468 16.4582C56.0134 15.0187 55.2412 13.0499 55.3131 11.0201C55.3131 6.61884 58.5616 3.27746 62.8919 3.27746C65.5231 3.30943 67.9834 4.58804 69.5227 6.72373L71.8862 4.58804C70.9352 3.19555 69.6466 2.06777 68.1392 1.31159C66.489 0.457515 64.658 0.00800187 62.8 0.00100944C59.9261 -0.0269603 57.1561 1.07185 55.0834 3.06369C54.0675 4.05662 53.2613 5.24333 52.7139 6.55391C52.1286 7.97137 51.8319 9.49173 51.8409 11.0251C51.8279 12.5424 52.1196 14.0468 52.6979 15.4493C53.2344 16.7349 54.0305 17.8966 55.0344 18.8616C57.1102 20.8165 59.8662 21.8863 62.7171 21.8433C64.615 21.8473 66.486 21.4018 68.1782 20.5438C69.6915 19.7666 71.0001 18.6438 72 17.2673L69.6516 15.1756ZM4.02068 19.4899C5.07054 20.3629 6.27224 21.0362 7.56484 21.4767C7.62078 21.4947 7.68072 21.5037 7.73965 21.5047H14.5333C14.5942 21.5037 14.6542 21.4937 14.7131 21.4767C15.6191 21.1641 16.4812 20.7365 17.2783 20.2041C17.3732 20.1402 17.4002 20.0123 17.3393 19.9154C17.3013 19.8565 17.2344 19.8215 17.1644 19.8225H10.5506C10.0352 19.8165 9.55768 19.5488 9.28398 19.1123C9.23004 19.0364 9.14213 18.9894 9.04923 18.9874H4.19549C4.12357 18.9874 4.05365 19.0164 4.0017 19.0674C3.95076 19.1183 3.92179 19.1872 3.92179 19.2601C3.92079 19.3431 3.95775 19.421 4.02068 19.4739V19.4899ZM18.2503 2.35446C17.2244 1.50438 16.0566 0.842098 14.8 0.400577C14.6821 0.36062 14.5583 0.340641 14.4334 0.339643H7.83155C7.70769 0.340641 7.58382 0.36062 7.46595 0.400577C6.59389 0.710241 5.76279 1.12579 4.99263 1.63923C4.90772 1.68019 4.86477 1.77509 4.88874 1.86599C4.91271 1.95589 4.99762 2.01683 5.09152 2.01183H11.7203C12.2448 2.01383 12.7312 2.28553 13.0089 2.73105C13.0629 2.80797 13.1488 2.85392 13.2427 2.85692H18.0705C18.2243 2.85692 18.3492 2.73205 18.3492 2.57822C18.3512 2.49231 18.3152 2.4104 18.2503 2.35446ZM22.2639 10.4857C22.2529 10.2619 22.0681 10.0871 21.8444 10.0871H17.541C17.3223 10.0911 17.1225 9.96422 17.0336 9.76443C16.9617 9.62159 16.8168 9.53168 16.657 9.52969H0.591396C0.302709 9.52969 0.0639678 9.75544 0.0469862 10.0431C0.0100262 10.3348 -0.00495757 10.6285 0.00203486 10.9222V11.3597C0.00802836 11.5825 0.191829 11.7593 0.415587 11.7573H4.72991C4.94568 11.7563 5.14247 11.8821 5.23137 12.0789C5.30329 12.2238 5.45213 12.3157 5.61396 12.3157H21.6795C21.9692 12.3157 22.209 12.0899 22.226 11.8012C22.226 11.5125 22.2579 11.2169 22.2579 10.9222C22.2679 10.7773 22.2719 10.6305 22.2639 10.4857ZM14.9019 6.7447C15.3774 6.7437 15.8209 6.98744 16.0756 7.38901C16.1545 7.50888 16.2874 7.5808 16.4302 7.5798H21.1761C21.4038 7.5748 21.5857 7.38801 21.5857 7.16025C21.5916 7.1183 21.5916 7.07634 21.5857 7.03439C21.3289 6.35113 21.0063 5.69484 20.6247 5.07351C20.5238 4.90769 20.343 4.8078 20.1492 4.8108H2.12973C1.93294 4.79881 1.74615 4.89371 1.63826 5.05753C1.39852 5.44311 1.18375 5.84168 0.99396 6.25324C0.943015 6.35912 0.950008 6.48498 1.01394 6.58488C1.07687 6.68477 1.18675 6.7447 1.30462 6.7447H14.9019ZM7.35307 15.0987C6.87759 15.1016 6.43507 14.8579 6.18334 14.4563C6.10642 14.3355 5.97257 14.2636 5.82972 14.2636H1.09385C0.957999 14.2636 0.830138 14.3305 0.753221 14.4434C0.675305 14.5552 0.658324 14.6981 0.706272 14.8259C0.954004 15.5072 1.26567 16.1645 1.64026 16.7868C1.74015 16.9506 1.91796 17.0495 2.10975 17.0485H20.1282C20.322 17.0515 20.5028 16.9526 20.6037 16.7868C20.8435 16.4012 21.0592 16.0027 21.249 15.5921C21.297 15.4842 21.288 15.3594 21.224 15.2595C21.1601 15.1606 21.0502 15.1007 20.9314 15.0997H7.35307V15.0987Z" fill="white"/>
</g>
</g>
<defs>
<clipPath id="clip0_1_1182">
<rect width="72" height="22" fill="white"/>
</clipPath>
<clipPath id="clip1_1_1182">
<rect width="72" height="21.8443" fill="white"/>
</clipPath>
</defs>
</svg>
