<svg width="60" height="60" viewBox="0 0 60 60" fill="none" xmlns="http://www.w3.org/2000/svg">
<path d="M29.9371 17.333C32.8991 17.333 35.7331 16.779 38.3391 15.768C38.0441 14.934 37.7081 14.115 37.3331 13.315C35.3121 9.02703 32.6511 6.66703 29.9371 6.66703C27.2221 6.66703 24.5621 9.02703 22.5411 13.314C22.1661 14.115 21.8301 14.934 21.5351 15.768C24.2151 16.806 27.0641 17.337 29.9371 17.333ZM29.9371 6.00003C35.7721 5.99103 41.4081 8.12603 45.7791 12C50.7511 16.397 53.8871 22.832 53.8871 30C53.8871 37.168 50.7511 43.602 45.7791 48C41.4081 51.874 35.7721 54.009 29.9371 54C24.1021 54.009 18.4661 51.874 14.0951 48C9.12306 43.602 5.98706 37.168 5.98706 30C5.98706 22.832 9.12306 16.397 14.0951 12C18.4661 8.12603 24.1021 5.99103 29.9371 6.00003ZM38.9571 15.518C41.0501 14.635 43.0041 13.45 44.7551 12C41.3821 9.20403 37.2891 7.42203 32.9481 6.86003C35.3761 8.27903 37.4761 11.373 38.9571 15.518ZM45.2691 12.439C43.4341 13.974 41.3801 15.225 39.1751 16.15C39.8941 18.308 40.4501 20.73 40.8051 23.333H40.1331C39.7861 20.817 39.2481 18.48 38.5561 16.399C35.8061 17.461 32.8841 18.004 29.9371 18C26.8991 18 23.9921 17.433 21.3181 16.399C20.6261 18.48 20.0881 20.817 19.7411 23.333H19.0691C19.4241 20.73 19.9801 18.308 20.6991 16.15C18.4941 15.225 16.4401 13.974 14.6051 12.439C9.73106 16.715 6.65206 22.997 6.65206 30C6.65206 37.003 9.73106 43.285 14.6051 47.561C16.4401 46.026 18.4941 44.775 20.6991 43.85C20.0421 41.877 19.5201 39.684 19.1651 37.333H19.8381C20.1851 39.597 20.6881 41.705 21.3181 43.601C24.0681 42.539 26.9901 41.997 29.9371 42C32.9751 42 35.8821 42.567 38.5561 43.601C39.1861 41.705 39.6891 39.597 40.0361 37.333H40.7091C40.3541 39.684 39.8321 41.877 39.1741 43.85C41.3791 44.775 43.4341 46.026 45.2691 47.561C50.1431 43.285 53.2221 37.003 53.2221 30C53.2221 22.997 50.1431 16.715 45.2691 12.439ZM44.7551 48C43.0041 46.55 41.0501 45.365 38.9571 44.482C37.4761 48.627 35.3761 51.721 32.9481 53.14C37.2891 52.578 41.3821 50.796 44.7551 48ZM29.9371 53.333C32.6521 53.333 35.3121 50.973 37.3331 46.686C37.7081 45.885 38.0441 45.066 38.3391 44.232C35.6591 43.194 32.8101 42.663 29.9371 42.667C26.9741 42.667 24.1411 43.221 21.5351 44.232C21.8301 45.066 22.1661 45.885 22.5411 46.685C24.5621 50.973 27.2231 53.333 29.9371 53.333ZM20.9171 44.482C18.8241 45.365 16.8701 46.55 15.1191 48C18.4921 50.796 22.5851 52.578 26.9261 53.14C24.4981 51.721 22.3981 48.627 20.9171 44.482ZM15.1191 12C16.8701 13.45 18.8241 14.635 20.9171 15.518C22.3981 11.373 24.4981 8.27903 26.9261 6.86003C22.5851 7.42203 18.4921 9.20403 15.1191 12Z" fill="white"/>
<path d="M9.5 33.3331V26.8001H10.571V33.3331H9.5ZM11.504 31.1871L12.584 31.2051C12.64 31.9711 13.236 32.4841 14.149 32.4841C14.922 32.4841 15.481 32.1391 15.481 31.5131C15.481 30.8231 14.801 30.6731 13.767 30.4871C12.687 30.3001 11.662 29.9551 11.662 28.6571C11.662 27.5191 12.594 26.7441 13.981 26.7441C15.472 26.7441 16.403 27.5561 16.449 28.7601H15.378C15.295 28.0971 14.773 27.6491 13.981 27.6491C13.246 27.6491 12.733 27.9671 12.733 28.5831C12.733 29.2551 13.404 29.3951 14.428 29.5721C15.509 29.7681 16.561 30.1131 16.552 31.4011C16.552 32.5771 15.574 33.3891 14.14 33.3891C12.519 33.3891 11.541 32.4931 11.504 31.1871ZM23.577 30.0671C23.577 31.9801 22.283 33.3891 20.411 33.3891C18.538 33.3891 17.244 31.9801 17.244 30.0671C17.244 28.1531 18.538 26.7441 20.411 26.7441C22.283 26.7441 23.577 28.1531 23.577 30.0671ZM18.343 30.0671C18.343 31.4481 19.172 32.4471 20.411 32.4471C21.649 32.4471 22.478 31.4481 22.478 30.0671C22.478 28.6851 21.649 27.6871 20.411 27.6871C19.172 27.6871 18.343 28.6851 18.343 30.0671ZM26.508 33.3331V32.5031L29.014 30.3651C29.601 29.8711 30.038 29.4131 30.038 28.7881C30.038 28.0411 29.545 27.6311 28.8 27.6311C28.055 27.6311 27.552 28.1351 27.552 28.9471V29.0591H26.518V28.8911C26.518 27.6491 27.412 26.7441 28.8 26.7441C30.262 26.7441 31.082 27.5471 31.082 28.7411C31.082 29.7121 30.495 30.3191 29.703 30.9811L27.971 32.4281H31.128V33.3331H26.508ZM31.453 27.7051V26.8001H36.129V27.4911L33.074 33.3331H31.966L35.002 27.7051H31.453ZM36.436 30.2161V29.9171C36.436 28.0231 37.488 26.7441 39.006 26.7441C40.525 26.7441 41.577 28.0231 41.577 29.9171V30.2161C41.577 32.1851 40.525 33.3891 39.006 33.3891C37.488 33.3891 36.436 32.1851 36.436 30.2161ZM40.534 30.1791V29.9551C40.534 28.4991 39.919 27.6491 39.006 27.6491C38.094 27.6491 37.479 28.4991 37.479 29.9551V30.1791C37.479 31.6441 38.094 32.4841 39.006 32.4841C39.919 32.4841 40.534 31.6441 40.534 30.1791ZM42.302 30.2161V29.9171C42.302 28.0231 43.355 26.7441 44.873 26.7441C46.391 26.7441 47.443 28.0231 47.443 29.9171V30.2161C47.443 32.1851 46.391 33.3891 44.873 33.3891C43.355 33.3891 42.302 32.1851 42.302 30.2161ZM46.4 30.1791V29.9551C46.4 28.4991 45.786 27.6491 44.873 27.6491C43.96 27.6491 43.345 28.4991 43.345 29.9551V30.1791C43.345 31.6441 43.96 32.4841 44.873 32.4841C45.786 32.4841 46.4 31.6441 46.4 30.1791ZM49.351 27.4631V26.8001H50.367V33.3331H49.333V28.8531C49.24 28.9091 49.1 28.9371 48.923 28.9371H47.861V28.0511H48.876C49.212 28.0511 49.351 27.8081 49.351 27.4631Z" fill="white"/>
</svg>
