<svg width="68" height="25" viewBox="0 0 68 25" fill="none" xmlns="http://www.w3.org/2000/svg">
<g clip-path="url(#clip0_1_1495)">
<g clip-path="url(#clip1_1_1495)">
<g clip-path="url(#clip2_1_1495)">
<path d="M0.865967 10.752H4.81897V24.122H0.865967V10.752ZM0.865967 3.42004H4.81897V7.32904H0.865967V3.42004ZM17.057 10.752L13.958 19.815L10.912 10.752H6.65997L11.611 24.122H15.994L20.867 10.752H17.058H17.057ZM33.054 15.379C33.054 14.777 33.028 13.187 32.12 12.097C30.785 10.559 28.426 10.38 27.311 10.38C26.027 10.38 24.446 10.598 23.214 11.47C21.802 12.47 21.71 13.905 21.685 14.61H25.574C25.548 14.188 25.652 13.777 25.872 13.418C26.22 12.942 26.781 12.664 27.375 12.675C27.752 12.675 28.788 12.803 29.139 13.79C29.294 14.264 29.32 14.687 29.32 15.559C28.011 15.559 25.626 15.559 23.98 16.303C21.491 17.443 21.114 19.391 21.114 20.456C21.097 21.551 21.522 22.607 22.294 23.391C22.826 23.891 23.707 24.443 25.665 24.443C26.416 24.443 28.205 24.443 29.696 22.302C29.687 22.911 29.731 23.52 29.826 24.122H33.404C33.179 23.008 33.07 21.874 33.079 20.738L33.054 15.379ZM28.569 21.148C28.146 21.635 27.531 21.915 26.883 21.917C25.574 21.917 24.952 20.917 24.952 20.007C24.952 18.417 26.767 17.622 29.307 17.841C29.32 19.277 29.256 20.302 28.569 21.148ZM47.754 12.918C47.405 11.996 46.29 10.406 43.632 10.406C40.689 10.406 39.627 12.123 39.25 12.726L39.147 10.739H35.349C35.426 11.661 35.426 13.097 35.426 13.149V24.121H39.406V16.302C39.406 15.276 39.652 14.609 39.885 14.264C40.355 13.6 41.127 13.21 41.946 13.225C42.763 13.199 43.516 13.635 43.878 14.366C44.086 14.789 44.086 15.263 44.086 15.815V24.122H48.13V16.905C48.13 14.431 48.039 13.739 47.754 12.918ZM56.051 7.38004L52.123 8.44504V10.752H49.53V13.341H52.123V20.764C52.123 21.878 52.123 24.366 56.103 24.366C57.141 24.354 58.173 24.212 59.175 23.943V21.378C58.732 21.43 58.286 21.456 57.84 21.456C56.077 21.456 56.077 20.686 56.051 19.469V13.328H59.265V10.738H56.051V7.38004ZM61.366 10.752H65.32V24.122H61.366V10.752ZM61.366 4.72704H63.998V7.32904H61.366V4.72704Z" fill="white"/>
<path d="M65.333 3.42002V7.32902H67.964V0.817017H61.366V3.43302L65.333 3.42002Z" fill="white"/>
</g>
</g>
</g>
<defs>
<clipPath id="clip0_1_1495">
<rect width="68" height="25" fill="white"/>
</clipPath>
<clipPath id="clip1_1_1495">
<rect width="68" height="25" fill="white"/>
</clipPath>
<clipPath id="clip2_1_1495">
<rect width="68" height="25" fill="white"/>
</clipPath>
</defs>
</svg>
