<svg width="13" height="13" viewBox="0 0 13 13" fill="none" xmlns="http://www.w3.org/2000/svg">
<g clip-path="url(#clip0_1_1313)">
<g clip-path="url(#clip1_1_1313)">
<path d="M11.824 0H1.176C0.527 0 0 0.527 0 1.176V11.824C0 12.473 0.527 13 1.176 13H11.824C12.474 13 13 12.473 13 11.824V1.176C13 0.527 12.473 0 11.824 0ZM4.023 11.225C4.023 11.414 3.87 11.567 3.681 11.567H2.224C2.035 11.567 1.882 11.414 1.882 11.225V5.118C1.882 4.929 2.035 4.776 2.224 4.776H3.681C3.87 4.776 4.023 4.929 4.023 5.118V11.225ZM2.952 4.201C2.188 4.201 1.568 3.581 1.568 2.817C1.568 2.052 2.188 1.433 2.952 1.433C3.716 1.433 4.336 2.052 4.336 2.817C4.336 3.581 3.717 4.201 2.952 4.201ZM11.636 11.253C11.636 11.426 11.495 11.567 11.321 11.567H9.758C9.584 11.567 9.443 11.426 9.443 11.253V8.388C9.443 7.961 9.569 6.516 8.326 6.516C7.363 6.516 7.168 7.505 7.128 7.949V11.253C7.128 11.426 6.988 11.567 6.814 11.567H5.302C5.128 11.567 4.987 11.426 4.987 11.253V5.091C4.987 4.917 5.128 4.776 5.302 4.776H6.814C6.988 4.776 7.128 4.917 7.128 5.091V5.624C7.486 5.088 8.017 4.674 9.147 4.674C11.65 4.674 11.636 7.012 11.636 8.297V11.253Z" fill="white"/>
</g>
</g>
<defs>
<clipPath id="clip0_1_1313">
<rect width="13" height="13" fill="white"/>
</clipPath>
<clipPath id="clip1_1_1313">
<rect width="13" height="13" fill="white"/>
</clipPath>
</defs>
</svg>
