<svg width="71" height="171" viewBox="0 0 71 171" fill="none" xmlns="http://www.w3.org/2000/svg">
<path d="M20.7957 71.54C16.149 71.54 12.409 69.7267 9.57566 66.1C6.85566 62.36 5.49566 57.6567 5.49566 51.99C5.49566 43.83 7.93233 37.4833 12.8057 32.95C17.679 28.4167 24.3657 26.0933 32.8657 25.98V36.01C27.879 36.01 24.0823 37.2567 21.4757 39.75C18.9823 42.2433 17.7357 45.19 17.7357 48.59C17.7357 49.61 17.7923 50.4033 17.9057 50.97C19.4923 49.7233 21.3623 49.1 23.5157 49.1C26.4623 49.1 28.899 50.0633 30.8257 51.99C32.7523 53.9167 33.7157 56.58 33.7157 59.98C33.7157 63.2667 32.469 66.0433 29.9757 68.31C27.5957 70.4633 24.5357 71.54 20.7957 71.54ZM53.4357 71.54C48.789 71.54 45.049 69.7267 42.2157 66.1C39.4957 62.36 38.1357 57.6567 38.1357 51.99C38.1357 43.83 40.5723 37.4833 45.4457 32.95C50.319 28.4167 57.0057 26.0933 65.5057 25.98V36.01C60.519 36.01 56.779 37.2567 54.2857 39.75C51.7923 42.2433 50.5457 45.19 50.5457 48.59C50.5457 49.61 50.6023 50.4033 50.7157 50.97C52.189 49.7233 54.059 49.1 56.3257 49.1C59.2723 49.1 61.6523 50.0633 63.4657 51.99C65.3923 53.9167 66.3557 56.58 66.3557 59.98C66.3557 63.2667 65.1657 66.0433 62.7857 68.31C60.4057 70.4633 57.289 71.54 53.4357 71.54Z" fill="#383838"/>
</svg>
