<svg width="101" height="29" viewBox="0 0 101 29" fill="none" xmlns="http://www.w3.org/2000/svg">
<g clip-path="url(#clip0_1_1484)">
<g clip-path="url(#clip1_1_1484)">
<path d="M74.44 21.844C71.023 21.844 68.899 19.873 68.899 16.695C68.899 13.396 70.858 11.345 74.014 11.345H74.279C74.674 11.345 75.22 11.358 75.964 11.45V7.46899H78.192V21.485C78.192 21.485 76.075 21.844 74.44 21.844ZM74.42 13.093C72.26 13.093 71.211 14.253 71.211 16.64C71.211 18.782 72.478 20.114 74.513 20.114C74.904 20.114 75.352 20.088 75.963 20.036V13.236C75.453 13.147 74.937 13.099 74.42 13.093ZM43.911 21.523L37.89 11.059L37.889 21.523H35.79V8.27599H38.728L44.748 18.646L44.746 8.27599H46.872V21.523H43.911ZM63.089 21.726C62.075 21.726 61.018 21.613 59.759 21.373L59.624 21.346V19.496L59.822 19.539C60.932 19.774 61.89 19.976 62.849 19.976C63.623 19.976 65.426 19.855 65.426 18.719C65.426 17.768 64.18 17.529 63.18 17.338L63.116 17.325C62.944 17.294 62.774 17.259 62.605 17.218C61.136 16.838 59.57 16.268 59.57 14.309C59.57 12.397 61.089 11.303 63.736 11.303C65.008 11.303 65.93 11.438 66.673 11.547L67.032 11.601V13.397L66.841 13.362C66.001 13.208 65.018 13.05 64.071 13.05C63.02 13.05 61.772 13.247 61.772 14.178C61.772 14.951 62.794 15.172 63.976 15.429C65.63 15.786 67.681 16.234 67.681 18.481C67.681 20.544 66.009 21.726 63.089 21.726ZM84.449 21.726C82.142 21.726 80.006 21.321 80.006 18.388C80.006 15.195 83.31 15.195 85.285 15.195C85.481 15.195 86.41 15.239 86.693 15.25C86.692 13.46 86.669 13.033 84.061 13.033C83.027 13.033 81.879 13.236 80.866 13.417L80.673 13.452V11.683L80.803 11.656C81.942 11.422 83.102 11.303 84.266 11.303C86.793 11.303 88.934 11.556 88.934 14.679V21.488L88.78 21.506C87.342 21.664 85.896 21.737 84.449 21.726ZM85.229 16.776C83.324 16.776 82.144 17.055 82.144 18.443C82.144 20.051 83.65 20.184 85.062 20.184C85.589 20.184 86.538 20.116 86.827 20.096V16.831C86.42 16.813 85.358 16.776 85.229 16.776ZM53.177 21.726C50.867 21.726 48.731 21.321 48.731 18.388C48.731 15.195 52.035 15.195 54.009 15.195C54.206 15.195 55.136 15.239 55.422 15.25C55.419 13.46 55.393 13.033 52.787 13.033C51.752 13.033 50.604 13.236 49.59 13.417L49.396 13.452V11.683L49.53 11.656C50.668 11.422 51.828 11.303 52.99 11.303C55.517 11.303 57.658 11.556 57.658 14.679V21.488L57.504 21.506C56.068 21.664 54.623 21.737 53.177 21.726ZM53.953 16.776C52.05 16.776 50.872 17.055 50.872 18.443C50.872 20.051 52.375 20.184 53.788 20.184C54.317 20.184 55.265 20.116 55.555 20.096V16.831C55.021 16.808 54.487 16.79 53.953 16.776Z" fill="white"/>
<path d="M97.8081 26.024V21.678C96.9381 21.799 96.4761 21.799 96.1031 21.799C95.2201 21.799 94.2391 21.609 93.4791 21.29C91.7801 20.586 90.7661 18.798 90.7661 16.505C90.7661 15.359 91.0461 13.267 92.9201 12.138C93.8611 11.579 94.9711 11.34 96.6401 11.34C97.2371 11.34 98.0441 11.385 98.8231 11.431L100.09 11.496V25.017L97.8081 26.024ZM96.4741 13.088C94.2091 13.088 93.0611 14.239 93.0611 16.505C93.0611 19.421 94.7731 20.034 96.2131 20.034C96.5631 20.034 96.9571 20.034 97.8301 19.923V13.152C97.1461 13.106 96.8311 13.088 96.4741 13.088Z" fill="white"/>
<path d="M25.8329 0.422974L18.4619 20.596C18.2749 21.103 17.8149 21.459 17.2759 21.513V21.522H25.0679C25.6629 21.523 26.1939 21.153 26.3959 20.596L33.7699 0.422974H25.8329Z" fill="white"/>
<path d="M16.639 21.2159C17.091 21.2159 17.487 20.9929 17.729 20.6539C17.754 20.6179 17.842 20.4949 17.905 20.3279L20.609 12.9239L19.027 8.60095C18.839 8.15595 18.424 7.84695 17.942 7.79295C17.459 7.73995 16.986 7.95195 16.705 8.34595C16.633 8.44695 16.574 8.55595 16.529 8.67195L13.824 16.0719L15.414 20.4129C15.625 20.8999 16.106 21.2159 16.639 21.2159Z" fill="white"/>
<path d="M17.218 7.47698H9.33896C8.74496 7.47598 8.21296 7.84698 8.01096 8.40398L0.636963 28.574H8.57396L15.946 8.40298C16.142 7.86598 16.645 7.50098 17.217 7.47898V7.47498L17.218 7.47698Z" fill="white"/>
</g>
</g>
<defs>
<clipPath id="clip0_1_1484">
<rect width="101" height="29" fill="white"/>
</clipPath>
<clipPath id="clip1_1_1484">
<rect width="101" height="29" fill="white"/>
</clipPath>
</defs>
</svg>
