<svg width="80" height="19" viewBox="0 0 80 19" fill="none" xmlns="http://www.w3.org/2000/svg">
<g clip-path="url(#clip0_1_1323)">
<path d="M6.54414 3.91007C5.20648 3.91007 4.11586 4.42455 3.27214 5.47407V4.11586H0V18.4596H3.27214V12.9854C4.11586 14.035 5.20648 14.5495 6.54414 14.5495C7.84069 14.5495 8.93131 14.0556 9.77517 13.0472C10.6189 12.0389 11.051 10.7629 11.051 9.21959C11.051 7.67614 10.6189 6.42069 9.77517 5.41228C8.93131 4.404 7.84069 3.91007 6.54414 3.91007ZM3.91007 10.9892C3.47793 10.516 3.27214 9.93972 3.27214 9.21959C3.27214 8.49917 3.47793 7.92303 3.91007 7.44966C4.32166 6.99697 4.85669 6.77048 5.49462 6.77048C6.13255 6.77048 6.66772 6.99697 7.07931 7.44966C7.49062 7.92276 7.69655 8.49931 7.69655 9.21931C7.69655 9.93959 7.4909 10.5159 7.07931 10.9891C6.66759 11.4625 6.13255 11.6888 5.49462 11.6888C4.85669 11.6888 4.32166 11.4626 3.91007 10.9892ZM13.6248 14.3437H16.897V0H13.6248V14.3437ZM27.2392 5.47407C26.3953 4.42441 25.3047 3.90993 23.967 3.90993C22.6705 3.90993 21.5799 4.40386 20.7361 5.41228C19.8924 6.42069 19.4601 7.676 19.4601 9.21945C19.4601 10.7629 19.8924 12.0388 20.7361 13.0472C21.5799 14.0556 22.6705 14.5495 23.967 14.5495C25.3047 14.5495 26.3953 14.035 27.2392 12.9854V14.3437H30.5317V4.11586H27.2392V5.47407ZM23.4526 10.9892C23.0204 10.516 22.8146 9.93972 22.8146 9.21959C22.8146 8.49917 23.0204 7.92303 23.4526 7.44966C23.8641 6.99697 24.3992 6.77048 25.0371 6.77048C25.675 6.77048 26.2102 6.99697 26.6218 7.44966C27.0334 7.9229 27.2392 8.49931 27.2392 9.21945C27.2392 9.93972 27.0334 10.516 26.6218 10.9892C26.2102 11.4626 25.675 11.689 25.0371 11.689C24.3992 11.689 23.8641 11.4626 23.4526 10.9892ZM39.9174 3.91007C38.6208 3.91007 37.6124 4.42455 36.8921 5.47407V4.11586H33.5996V14.3437H36.8921V8.31393C36.8921 7.24386 37.5713 6.52359 38.6208 6.52359C39.6087 6.52359 40.2877 7.24386 40.2877 8.31393V14.3437H43.5804V7.84069C43.5804 6.68828 43.2306 5.74152 42.5514 5.00069C41.8724 4.28041 40.9874 3.91007 39.9174 3.91007ZM52.7967 3.91007C51.5208 3.91007 50.533 4.4451 49.8332 5.49462V0H46.5612V14.3437H49.8332V8.31393C49.8332 7.24386 50.5124 6.52359 51.5619 6.52359C52.5498 6.52359 53.2288 7.24386 53.2288 8.31393V14.3437H56.5215V7.84069C56.5215 6.68828 56.1717 5.74166 55.4926 5.00069C54.7928 4.28041 53.8874 3.91007 52.7967 3.91007ZM66.7672 5.47407C65.9234 4.42441 64.8328 3.90993 63.4952 3.90993C62.1986 3.90993 61.108 4.40386 60.2641 5.41228C59.4204 6.42069 58.9883 7.676 58.9883 9.21945C58.9883 10.7629 59.4204 12.0388 60.2641 13.0472C61.108 14.0556 62.1986 14.5495 63.4952 14.5495C64.8328 14.5495 65.9234 14.035 66.7672 12.9854V14.3437H70.0599V4.11586H66.7672V5.47407ZM62.9807 10.9892C62.5484 10.516 62.3426 9.93972 62.3426 9.21959C62.3426 8.49917 62.5484 7.92303 62.9807 7.44966C63.3923 6.99697 63.9273 6.77048 64.5652 6.77048C65.2032 6.77048 65.7382 6.99697 66.1498 7.44966C66.5614 7.9229 66.7672 8.49931 66.7672 9.21945C66.7672 9.93972 66.5614 10.516 66.1498 10.9892C65.7382 11.4626 65.2032 11.689 64.5652 11.689C63.9273 11.689 63.3923 11.4626 62.9807 10.9892ZM77.5932 4.11586V1.42H74.3007V4.11586H72.4073V6.83228H74.3007V14.3437H77.5932V6.83228H79.857V4.11586H77.5932Z" fill="white"/>
</g>
<defs>
<clipPath id="clip0_1_1323">
<rect width="80" height="18.4828" fill="white"/>
</clipPath>
</defs>
</svg>
