<svg width="15" height="14" viewBox="0 0 15 14" fill="none" xmlns="http://www.w3.org/2000/svg">
<path d="M5.78794 2.94487C6.323 1.61096 6.59053 0.944009 7.02518 0.851573C7.13947 0.827267 7.25759 0.827267 7.37188 0.851573C7.80652 0.944009 8.07406 1.61096 8.60912 2.94487C8.9134 3.70343 9.06554 4.08272 9.35021 4.34069C9.43006 4.41305 9.51674 4.47749 9.60903 4.53312C9.93806 4.73143 10.3488 4.76821 11.1703 4.84179C12.5609 4.96633 13.2562 5.0286 13.4686 5.42505C13.5126 5.50716 13.5425 5.59606 13.557 5.68806C13.6274 6.13225 13.1163 6.5973 12.0939 7.5274L11.81 7.78568C11.3321 8.22052 11.0931 8.43794 10.9549 8.70927C10.872 8.87204 10.8164 9.04733 10.7903 9.22813C10.7469 9.52953 10.8169 9.84494 10.9568 10.4758L11.0068 10.7012C11.2578 11.8324 11.3833 12.3981 11.2267 12.6761C11.086 12.9258 10.8268 13.0857 10.5404 13.0994C10.2217 13.1146 9.77249 12.7486 8.87418 12.0166C8.28234 11.5344 7.98642 11.2932 7.65791 11.199C7.3577 11.113 7.03935 11.113 6.73914 11.199C6.41064 11.2932 6.11472 11.5344 5.52287 12.0166C4.62456 12.7486 4.17541 13.1146 3.85664 13.0994C3.5703 13.0857 3.3111 12.9258 3.17038 12.6761C3.01372 12.3981 3.13922 11.8324 3.39021 10.7012L3.44022 10.4758C3.58018 9.84494 3.65016 9.52953 3.60673 9.22813C3.58068 9.04733 3.52509 8.87204 3.44217 8.70927C3.30394 8.43794 3.06496 8.22052 2.58701 7.78568L2.30312 7.5274C1.28079 6.5973 0.76963 6.13225 0.840025 5.68806C0.854604 5.59606 0.884503 5.50716 0.928479 5.42505C1.14081 5.0286 1.83613 4.96633 3.22676 4.84179C4.04825 4.76821 4.459 4.73143 4.78803 4.53312C4.88032 4.47749 4.96699 4.41305 5.04684 4.34069C5.33152 4.08272 5.48366 3.70343 5.78794 2.94487Z" fill="white" stroke="white" stroke-width="1.66667"/>
</svg>
