<svg width="20" height="22" viewBox="0 0 20 22" fill="none" xmlns="http://www.w3.org/2000/svg">
<g clip-path="url(#clip0_1_272)">
<path d="M16.345 19.732C15.597 18.353 14.85 16.974 14.093 15.578C14.071 15.596 14.052 15.613 14.033 15.629C14 15.658 13.97 15.684 13.937 15.706C13.542 16.028 13.204 16.262 12.807 16.474C11.748 17.04 10.617 17.217 9.44202 17.038C8.20102 16.849 7.13002 16.277 6.23102 15.354C5.64402 14.752 5.20702 14.04 4.89702 13.238C4.53102 12.287 4.39902 11.257 4.51302 10.24C4.62002 9.23901 4.95802 8.28001 5.49802 7.44301C6.03702 6.61 6.75902 5.93001 7.60102 5.46301C8.36902 5.04101 9.08502 4.80301 10.047 4.75901C10.135 4.75701 10.289 4.74701 10.289 4.74701C10.289 4.74701 12.238 0.447005 12.326 0.244005C9.07102 -0.574995 4.01702 0.541006 1.31602 5.59001C-1.03198 9.97801 -0.310977 16.076 4.07502 19.649C7.88702 22.752 13.036 22.426 16.345 19.732ZM13.936 3.16501L14.101 3.33701L14.175 3.20301C14.209 3.14101 14.24 3.08501 14.27 3.02901C14.621 2.38301 15.296 2.08001 15.959 2.27001C16.24 2.35001 16.437 2.60601 16.437 2.89301C16.439 3.22801 16.262 3.45901 16.012 3.61701C15.813 3.74301 15.609 3.85901 15.405 3.97601C15.194 4.09701 14.982 4.21701 14.777 4.34801C14.252 4.68101 13.815 5.11401 13.534 5.70601C13.228 6.35101 13.15 7.01801 13.168 7.72801V7.86801H17.876V6.42401L14.826 6.42801C14.826 6.42801 14.836 6.19201 15.038 5.94201C15.267 5.69201 15.468 5.57101 15.703 5.43301C15.841 5.35201 15.98 5.27501 16.118 5.19801C16.402 5.04001 16.681 4.88401 16.947 4.70001C17.617 4.23701 17.954 3.57201 17.898 2.70501C17.864 2.19201 17.673 1.76101 17.299 1.42201C16.793 0.962005 16.194 0.791005 15.549 0.777005C15.044 0.765005 14.546 0.911005 14.123 1.19601C13.738 1.45401 13.413 1.77701 13.206 2.21901C13.19 2.25301 13.153 2.33601 13.153 2.33601C13.153 2.33601 13.199 2.39001 13.238 2.42901C13.305 2.49601 13.369 2.56601 13.434 2.63601C13.473 2.67901 13.513 2.72201 13.553 2.76401C13.679 2.89601 13.805 3.02801 13.936 3.16501ZM17.43 9.32301L20 14.043L17.409 18.789L14.88 14.091H9.75702L12.344 9.32301H17.43Z" fill="#F2F2F2"/>
</g>
<defs>
<clipPath id="clip0_1_272">
<rect width="20" height="22" fill="white"/>
</clipPath>
</defs>
</svg>
