<svg width="60" height="60" viewBox="0 0 60 60" fill="none" xmlns="http://www.w3.org/2000/svg">
<path d="M18.0215 23.3331H16.9135L19.3535 16.8001H20.6295L23.0605 23.3331H21.9155L21.3005 21.7191H18.6275L18.0215 23.3331ZM19.9595 17.9571L18.9255 20.8041H21.0025L19.9595 17.9571ZM23.7295 23.3331V16.8001H24.8005V23.3331H23.7295ZM28.8255 23.3891C26.9255 23.3891 25.7425 22.0731 25.7425 20.0671C25.7425 18.0791 26.9625 16.7441 28.8905 16.7441C30.3805 16.7441 31.4515 17.6401 31.6665 19.0211H30.5575C30.3435 18.2001 29.7285 17.6871 28.8435 17.6871C27.6055 17.6871 26.8415 18.6671 26.8415 20.0671C26.8415 21.4571 27.5865 22.4471 28.8155 22.4471C29.7195 22.4471 30.3435 21.9431 30.5485 21.1121H31.6565C31.4515 22.4931 30.3435 23.3891 28.8255 23.3891ZM32.5425 23.3331V16.8001H35.1135C36.4735 16.8001 37.3675 17.6121 37.3675 18.8811C37.3675 20.1411 36.4735 20.9631 35.1135 20.9631H33.6135V23.3331H32.5425ZM35.0295 17.7331H33.6135V20.0291H35.0205C35.7845 20.0291 36.2775 19.5811 36.2775 18.8811C36.2775 18.1721 35.7935 17.7331 35.0295 17.7331ZM38.0505 23.3331H36.9415L39.3815 16.8001H40.6575L43.0885 23.3331H41.9435L41.3285 21.7191H38.6555L38.0505 23.3331ZM39.9875 17.9571L38.9535 20.8041H41.0305L39.9875 17.9571Z" fill="white"/>
<path d="M12.7025 30H47.2965" stroke="white" stroke-width="0.5" stroke-miterlimit="10"/>
<path d="M17.2285 41.1871L18.3085 41.2051C18.3645 41.9711 18.9605 42.4841 19.8735 42.4841C20.6465 42.4841 21.2055 42.1391 21.2055 41.5131C21.2055 40.8231 20.5255 40.6731 19.4915 40.4871C18.4115 40.3001 17.3865 39.9551 17.3865 38.6571C17.3865 37.5191 18.3185 36.7441 19.7055 36.7441C21.1965 36.7441 22.1275 37.5561 22.1745 38.7601H21.1035C21.0195 38.0971 20.4975 37.6491 19.7055 37.6491C18.9705 37.6491 18.4575 37.9671 18.4575 38.5831C18.4575 39.2551 19.1285 39.3951 20.1535 39.5721C21.2335 39.7681 22.2855 40.1131 22.2765 41.4011C22.2765 42.5771 21.2985 43.3891 19.8645 43.3891C18.2435 43.3891 17.2655 42.4931 17.2285 41.1871ZM29.3015 40.0671C29.3015 41.9801 28.0065 43.3891 26.1345 43.3891C24.2625 43.3891 22.9675 41.9801 22.9675 40.0671C22.9675 38.1531 24.2625 36.7441 26.1345 36.7441C28.0065 36.7441 29.3015 38.1531 29.3015 40.0671ZM24.0665 40.0671C24.0665 41.4481 24.8955 42.4471 26.1345 42.4471C27.3735 42.4471 28.2025 41.4481 28.2025 40.0671C28.2025 38.6851 27.3735 37.6871 26.1345 37.6871C24.8955 37.6871 24.0665 38.6851 24.0665 40.0671ZM33.0725 43.3891C31.1725 43.3891 29.9895 42.0731 29.9895 40.0671C29.9895 38.0791 31.2095 36.7441 33.1375 36.7441C34.6285 36.7441 35.6995 37.6401 35.9135 39.0211H34.8055C34.5905 38.2001 33.9765 37.6871 33.0915 37.6871C31.8525 37.6871 31.0885 38.6671 31.0885 40.0671C31.0885 41.4571 31.8335 42.4471 33.0635 42.4471C33.9665 42.4471 34.5905 41.9431 34.7955 41.1121H35.9045C35.6995 42.4931 34.5905 43.3891 33.0725 43.3891ZM39.1735 43.3331V36.8001H40.2445V43.3331H39.1735ZM41.4375 43.3331V36.8001H42.5095V43.3331H41.4375Z" fill="white"/>
<path d="M6.38245 30C6.38245 16.929 16.9564 6.33301 29.9994 6.33301C43.0434 6.33301 53.6174 16.929 53.6174 30C53.6174 43.071 43.0434 53.667 29.9994 53.667C16.9564 53.667 6.38245 43.071 6.38245 30Z" stroke="white" stroke-width="0.5" stroke-miterlimit="10"/>
</svg>
